<?xml version="1.0" encoding="utf-8"?>
<!-- Generator: Adobe Illustrator 23.0.6, SVG Export Plug-In . SVG Version: 6.00 Build 0)  -->
<svg version="1.1" id="Layer_1" xmlns="http://www.w3.org/2000/svg" xmlns:xlink="http://www.w3.org/1999/xlink" x="0px" y="0px"
	 viewBox="0 0 2024.24 612" style="enable-background:new 0 0 2024.24 612;" xml:space="preserve">
<style type="text/css">
	.st0{fill:#8491C8;}
	.st1{fill:#2B3990;}
	.st2{fill:#F1BEB7;}
	.st3{fill:#282D31;}
	.st4{fill:#F8D463;}
	.st5{fill:#A21E23;}
	.st6{fill:#3C6273;}
	.st7{fill:#9E6B28;}
	.st8{fill:#67A142;}
	.st9{fill:#F6EC35;}
	.st10{fill:#D21E89;}
	.st11{fill:#FAA831;}
	.st12{fill:#407968;}
	.st13{fill:#F9FBFE;}
</style>
<g>
	<path class="st0" d="M40.8,296.14c0.72,0.2,1.41,0.7,2.2,0.62c1.1-0.11,1.69-2.25,1.85-2.95c0.25-1.05,0.46-2.11,0.51-3.21
		c0.07-1.59-0.89-3.28-2.33-3.99c-1.7-0.83-2.65-0.02-3.25,1.57c-0.53,1.43-1.46,2.81-1.7,4.34c-0.18,1.13,0,1.6,0.47,2.29
		C38.88,295.29,40.26,296,40.8,296.14z"/>
	<path class="st0" d="M68.55,312.68c1.24-0.07,2.58,0.36,3.77-0.16c1.68-0.74,1.48-4.41,1.38-5.6c-0.16-1.77-0.37-3.55-0.86-5.3
		c-0.72-2.54-3.09-4.69-5.72-5.06c-3.1-0.43-4.17,1.34-4.28,4.15c-0.1,2.53-0.83,5.16-0.42,7.69c0.31,1.86,0.83,2.51,1.93,3.34
		C65.1,312.33,67.63,312.73,68.55,312.68z"/>
	<path class="st0" d="M138.98,348.8c-1.52-0.66-2.87-1.98-4.6-2.07c-2.45-0.12-4.41,4.39-5,5.87c-0.87,2.21-1.68,4.46-2.14,6.85
		c-0.66,3.46,0.89,7.46,3.82,9.47c3.46,2.37,5.79,0.89,7.6-2.4c1.63-2.96,4.09-5.67,5.1-8.94c0.75-2.41,0.5-3.49-0.3-5.15
		C142.9,351.29,140.12,349.29,138.98,348.8z"/>
	<path class="st0" d="M182.99,393.72c2.12-0.27,4.48,0.3,6.46-0.75c2.79-1.48,2-7.77,1.66-9.79c-0.49-3.02-1.08-6.05-2.15-9
		c-1.55-4.27-5.91-7.68-10.47-7.97c-5.39-0.34-7.01,2.83-6.84,7.67c0.15,4.36-0.78,8.98,0.25,13.27c0.76,3.17,1.75,4.2,3.73,5.5
		C177,393.55,181.4,393.93,182.99,393.72z"/>
	<path class="st0" d="M274.35,396.83c0.89-0.43,2.01-0.53,2.73-1.29c1.01-1.07-0.28-3.71-0.73-4.55c-0.67-1.26-1.37-2.5-2.29-3.63
		c-1.32-1.65-3.74-2.5-5.79-1.94c-2.42,0.65-2.66,2.29-1.86,4.39c0.72,1.89,0.99,4.06,2.09,5.79c0.81,1.28,1.39,1.59,2.46,1.86
		C271.69,397.64,273.68,397.15,274.35,396.83z"/>
	<path class="st0" d="M316.7,376.21c-1.48,0.75-3.35,0.95-4.53,2.23c-1.65,1.81,0.56,6.2,1.33,7.59c1.15,2.08,2.36,4.14,3.91,6.02
		c2.25,2.72,6.31,4.08,9.73,3.1c4.03-1.15,4.38-3.89,3-7.38c-1.24-3.14-1.76-6.76-3.64-9.63c-1.38-2.11-2.37-2.62-4.16-3.05
		C321.12,374.78,317.8,375.65,316.7,376.21z"/>
	<path class="st0" d="M372.72,362.89c-1.26,0.13-2.64-0.25-3.83,0.34c-1.67,0.83-1.31,4.56-1.14,5.76c0.24,1.8,0.54,3.59,1.12,5.36
		c0.85,2.55,3.37,4.64,6.06,4.88c3.18,0.29,4.19-1.56,4.17-4.42c-0.02-2.58,0.61-5.29,0.07-7.85c-0.4-1.88-0.96-2.51-2.11-3.32
		C376.26,363.09,373.67,362.8,372.72,362.89z"/>
	<path class="st0" d="M451.39,293.93c-1.65,0.18-3.47-0.31-5.02,0.47c-2.19,1.1-1.68,5.99-1.45,7.57c0.33,2.35,0.73,4.71,1.52,7.02
		c1.13,3.34,4.45,6.06,7.99,6.36c4.17,0.36,5.48-2.08,5.43-5.83c-0.05-3.38,0.76-6.95,0.03-10.3c-0.54-2.47-1.28-3.29-2.8-4.33
		C456.04,294.17,452.63,293.8,451.39,293.93z"/>
	<path class="st0" d="M495.71,253.08c-1.2-0.56-2.25-1.64-3.64-1.74c-1.95-0.15-3.61,3.42-4.11,4.59c-0.74,1.75-1.43,3.53-1.84,5.43
		c-0.6,2.75,0.56,5.98,2.86,7.64c2.71,1.96,4.61,0.83,6.12-1.76c1.36-2.34,3.38-4.45,4.25-7.04c0.65-1.91,0.47-2.78-0.14-4.12
		C498.8,255.15,496.62,253.5,495.71,253.08z"/>
	<path class="st1" d="M565.16,198.44c-1.65-0.2-3.31-1.07-5-0.66c-2.38,0.59-2.97,5.47-3.1,7.05c-0.2,2.37-0.33,4.76-0.08,7.18
		c0.36,3.51,3,6.89,6.38,7.97c3.99,1.27,5.8-0.81,6.59-4.48c0.71-3.31,2.28-6.6,2.31-10.03c0.02-2.53-0.52-3.49-1.77-4.84
		C569.64,199.7,566.4,198.59,565.16,198.44z"/>
	<path class="st2" d="M1217.67,442.23c-1.7-1.66-2.83-4.11-5.12-5.11c-3.22-1.41-8.15,3.63-9.68,5.32
		c-2.29,2.52-4.52,5.12-6.35,8.09c-2.65,4.31-2.61,10.45,0.3,14.63c3.43,4.93,7.31,4.15,11.4,0.65c3.69-3.14,8.36-5.52,11.39-9.39
		c2.23-2.85,2.45-4.43,2.22-7.05C1221.66,447.56,1218.95,443.48,1217.67,442.23z"/>
	<path class="st1" d="M1148.41,444.62c-1.37,0.93-3.21,1.36-4.21,2.78c-1.41,2,1.34,6.08,2.28,7.36c1.4,1.92,2.87,3.81,4.64,5.47
		c2.57,2.41,6.78,3.24,10.04,1.84c3.85-1.65,3.85-4.42,2.04-7.7c-1.63-2.96-2.61-6.48-4.83-9.09c-1.64-1.92-2.68-2.3-4.51-2.5
		C1152.61,442.64,1149.43,443.92,1148.41,444.62z"/>
	<path class="st3" d="M1276.16,478.59c2.54,0.3,5.12,1.64,7.73,0.99c3.67-0.92,4.56-8.46,4.76-10.9c0.3-3.66,0.49-7.34,0.1-11.08
		c-0.57-5.41-4.65-10.63-9.88-12.29c-6.17-1.95-8.96,1.27-10.16,6.94c-1.08,5.11-3.5,10.21-3.54,15.5c-0.03,3.9,0.82,5.39,2.75,7.47
		C1269.24,476.66,1274.25,478.37,1276.16,478.59z"/>
	<path class="st4" d="M1364.44,413.51c-1.64,0.22-3.48-0.22-5.01,0.6c-2.16,1.16-1.52,6.03-1.26,7.6c0.39,2.34,0.86,4.69,1.7,6.97
		c1.22,3.31,4.61,5.94,8.15,6.14c4.18,0.25,5.42-2.22,5.27-5.97c-0.13-3.38,0.58-6.96-0.24-10.29c-0.6-2.45-1.37-3.25-2.91-4.26
		C1369.08,413.62,1365.67,413.34,1364.44,413.51z"/>
	<path class="st5" d="M1311.35,393.41c-2.25,0.57-4.86,0.25-6.86,1.64c-2.82,1.95-1.15,8.63-0.53,10.76
		c0.92,3.19,1.94,6.38,3.47,9.42c2.22,4.4,7.35,7.51,12.31,7.24c5.85-0.32,7.18-3.95,6.38-9.14c-0.72-4.67-0.31-9.77-1.98-14.26
		c-1.23-3.31-2.42-4.3-4.72-5.45C1317.83,392.82,1313.04,392.98,1311.35,393.41z"/>
	<path class="st1" d="M1553.83,261.51c1.65-0.1,3.45,0.46,5.04-0.26c2.23-1.01,1.93-5.91,1.78-7.5c-0.23-2.37-0.53-4.74-1.21-7.07
		c-0.99-3.38-4.19-6.24-7.71-6.69c-4.15-0.53-5.56,1.84-5.67,5.59c-0.1,3.38-1.06,6.91-0.47,10.29c0.43,2.49,1.14,3.34,2.61,4.45
		C1549.21,261.08,1552.59,261.59,1553.83,261.51z"/>
	<path class="st3" d="M1881.14,196.3c2.11,0.76,4.04,2.42,6.39,2.39c3.31-0.05,5.57-6.3,6.23-8.35c0.98-3.06,1.88-6.16,2.29-9.43
		c0.59-4.73-1.85-9.99-5.97-12.44c-4.87-2.89-7.89-0.7-10.04,3.9c-1.94,4.14-5.02,8.01-6.1,12.51c-0.8,3.32-0.38,4.76,0.85,6.92
		C1875.63,193.28,1879.56,195.73,1881.14,196.3z"/>
	<path class="st1" d="M1920.77,188.83c-1.65,0.16-3.47-0.33-5.03,0.43c-2.2,1.08-1.72,5.98-1.51,7.56c0.32,2.36,0.7,4.72,1.46,7.03
		c1.11,3.35,4.41,6.09,7.94,6.42c4.17,0.39,5.5-2.04,5.47-5.79c-0.02-3.38,0.81-6.94,0.11-10.3c-0.52-2.47-1.26-3.3-2.77-4.35
		C1925.41,189.1,1922,188.71,1920.77,188.83z"/>
	<path class="st1" d="M1954.22,210.32c-1.65,0.16-3.47-0.33-5.03,0.43c-2.2,1.08-1.72,5.98-1.51,7.56c0.31,2.36,0.7,4.72,1.46,7.03
		c1.11,3.35,4.41,6.09,7.94,6.42c4.17,0.39,5.5-2.04,5.47-5.79c-0.02-3.38,0.81-6.94,0.11-10.3c-0.52-2.47-1.26-3.3-2.77-4.35
		C1958.86,210.58,1955.46,210.2,1954.22,210.32z"/>
	<path class="st1" d="M1404.58,322.61c1.89-0.75,4.2-0.78,5.77-2.21c2.22-2.02,0.01-7.62-0.77-9.41c-1.17-2.67-2.41-5.32-4.09-7.78
		c-2.43-3.57-7.24-5.68-11.52-4.88c-5.04,0.95-5.78,4.25-4.49,8.67c1.16,3.97,1.39,8.45,3.35,12.16c1.45,2.74,2.59,3.46,4.73,4.19
		C1399.03,323.86,1403.16,323.17,1404.58,322.61z"/>
	<path class="st1" d="M1458.57,332.04c0.55-1.56,1.78-3,1.74-4.73c-0.05-2.45-4.68-4.1-6.2-4.58c-2.27-0.72-4.57-1.37-6.98-1.66
		c-3.5-0.42-7.38,1.4-9.18,4.46c-2.12,3.61-0.49,5.84,2.92,7.41c3.07,1.42,5.94,3.68,9.28,4.47c2.46,0.58,3.52,0.26,5.12-0.65
		C1456.36,336.13,1458.16,333.21,1458.57,332.04z"/>
	<path class="st1" d="M1481.5,279.88c-1.47,0.76-3.35,0.96-4.52,2.25c-1.65,1.81,0.59,6.19,1.36,7.58c1.16,2.08,2.38,4.13,3.94,6
		c2.26,2.71,6.33,4.05,9.74,3.06c4.02-1.17,4.37-3.91,2.97-7.39c-1.26-3.14-1.79-6.76-3.68-9.62c-1.39-2.11-2.38-2.61-4.17-3.04
		C1485.92,278.43,1482.61,279.32,1481.5,279.88z"/>
	<path class="st1" d="M1436.58,277.98c1.65,0.16,3.34,1,5.01,0.55c2.37-0.64,2.85-5.53,2.95-7.12c0.15-2.37,0.23-4.76-0.07-7.18
		c-0.44-3.5-3.14-6.83-6.55-7.83c-4.02-1.19-5.79,0.93-6.49,4.62c-0.64,3.32-2.14,6.65-2.1,10.08c0.03,2.53,0.6,3.48,1.87,4.81
		C1432.08,276.82,1435.34,277.86,1436.58,277.98z"/>
	<path class="st1" d="M1495.31,240.5c1.65,0.16,3.34,1,5.01,0.55c2.37-0.64,2.85-5.53,2.95-7.12c0.15-2.37,0.23-4.76-0.07-7.18
		c-0.44-3.5-3.14-6.83-6.55-7.83c-4.02-1.19-5.79,0.93-6.49,4.62c-0.64,3.32-2.14,6.65-2.1,10.08c0.03,2.53,0.6,3.48,1.87,4.81
		C1490.81,239.34,1494.07,240.38,1495.31,240.5z"/>
	<path class="st1" d="M1619.88,182.84c1.64-0.26,3.48,0.13,4.99-0.73c2.13-1.21,1.36-6.07,1.06-7.63c-0.46-2.33-0.98-4.66-1.88-6.93
		c-1.31-3.27-4.76-5.81-8.31-5.93c-4.19-0.14-5.36,2.36-5.12,6.11c0.22,3.37-0.39,6.98,0.51,10.28c0.67,2.44,1.45,3.22,3.02,4.18
		C1615.23,182.85,1618.65,183.04,1619.88,182.84z"/>
	<path class="st6" d="M1775.76,145.1c-2.56-0.06-5.25-1.17-7.78-0.28c-3.57,1.25-3.77,8.83-3.74,11.28
		c0.04,3.67,0.18,7.35,0.92,11.04c1.07,5.33,5.6,10.15,10.95,11.32c6.31,1.38,8.8-2.08,9.47-7.83c0.61-5.18,2.55-10.48,2.1-15.75
		c-0.33-3.88-1.31-5.29-3.42-7.19C1782.82,146.38,1777.68,145.14,1775.76,145.1z"/>
	<path class="st2" d="M1836.16,155.74c-2.16,0.28-4.56-0.3-6.58,0.77c-2.84,1.51-2.02,7.91-1.68,9.97c0.51,3.08,1.11,6.16,2.21,9.16
		c1.59,4.35,6.03,7.81,10.68,8.1c5.49,0.34,7.13-2.9,6.95-7.82c-0.16-4.43,0.78-9.14-0.28-13.51c-0.78-3.22-1.79-4.28-3.81-5.6
		C1842.26,155.9,1837.78,155.53,1836.16,155.74z"/>
	<path class="st0" d="M417.33,327.8c-1.59,0.45-3.46,0.29-4.86,1.32c-1.97,1.46-0.63,6.18-0.14,7.69c0.73,2.26,1.52,4.51,2.69,6.64
		c1.68,3.09,5.41,5.2,8.94,4.89c4.17-0.36,5.04-2.98,4.35-6.66c-0.62-3.32-0.44-6.96-1.73-10.13c-0.95-2.34-1.82-3.02-3.49-3.78
		C421.94,327.23,418.53,327.45,417.33,327.8z"/>
	<path class="st0" d="M101,314.45c-0.33,0.23-0.67,0.51-1.01,0.85c-2.74,2.74-5.61,5.5-7.56,8.88c-2.23,3.85-2.02,8.04-0.94,12.27
		c0.79,3.08,2.57,6.48,6.1,6.79c4.19,0.36,8.94,4.39,12.35,0.23c1.71-2.08,2.54-5.19,3.47-7.69c1.11-3,2.06-6.12,1.89-9.35
		c-0.21-3.96-2.04-9.27-5.67-11.35C107.35,313.78,103.31,312.88,101,314.45z"/>
	<path class="st0" d="M46.08,340.94c1.21-0.05,2.52,0.38,3.7-0.12c1.65-0.71,1.5-4.31,1.41-5.47c-0.14-1.74-0.32-3.48-0.79-5.2
		c-0.68-2.49-2.98-4.63-5.56-5.01c-3.04-0.45-4.1,1.27-4.23,4.02c-0.12,2.48-0.87,5.05-0.48,7.53c0.28,1.83,0.79,2.46,1.85,3.29
		C42.7,340.56,45.17,340.98,46.08,340.94z"/>
	<path class="st0" d="M77.31,340.67c-0.95-0.28-1.85-0.96-2.89-0.88c-1.46,0.11-2.28,2.94-2.52,3.86c-0.35,1.38-0.66,2.77-0.75,4.22
		c-0.13,2.1,1.09,4.36,2.98,5.33c2.23,1.14,3.5,0.09,4.32-2c0.74-1.88,1.99-3.67,2.35-5.69c0.26-1.49,0.03-2.11-0.57-3.03
		C79.82,341.85,78.02,340.88,77.31,340.67z"/>
	<path class="st0" d="M140.78,417.68c2.54,0.02,5.23,1.08,7.73,0.16c3.53-1.29,3.6-8.83,3.54-11.27c-0.1-3.64-0.3-7.3-1.08-10.95
		c-1.14-5.28-5.72-10-11.06-11.08c-6.3-1.27-8.71,2.21-9.29,7.93c-0.52,5.16-2.37,10.45-1.84,15.68c0.39,3.85,1.38,5.23,3.51,7.09
		C133.76,416.52,138.88,417.67,140.78,417.68z"/>
	<path class="st0" d="M183.98,415.09c-1.38,0.2-2.93-0.15-4.22,0.56c-1.81,1-1.22,5.1-0.98,6.42c0.36,1.97,0.77,3.95,1.5,5.86
		c1.06,2.78,3.95,4.96,6.94,5.1c3.53,0.17,4.55-1.93,4.39-5.09c-0.15-2.85,0.42-5.88-0.31-8.68c-0.53-2.06-1.19-2.73-2.5-3.56
		C187.9,415.14,185.02,414.94,183.98,415.09z"/>
	<path class="st0" d="M378.28,414.53c1.19-0.73,2.76-1.02,3.66-2.17c1.27-1.63-0.89-5.17-1.63-6.29c-1.1-1.67-2.26-3.32-3.69-4.8
		c-2.07-2.14-5.58-3.01-8.39-1.96c-3.31,1.24-3.43,3.56-2.03,6.41c1.26,2.56,1.93,5.57,3.7,7.86c1.3,1.69,2.17,2.04,3.7,2.29
		C374.66,416.03,377.39,415.08,378.28,414.53z"/>
	<path class="st0" d="M446.97,352.36c-1.08,0.89-2.58,1.4-3.31,2.67c-1.03,1.79,1.61,5,2.5,6c1.33,1.5,2.71,2.97,4.33,4.23
		c2.35,1.82,5.95,2.19,8.58,0.75c3.1-1.69,2.89-4.01,1.11-6.63c-1.61-2.36-2.7-5.24-4.77-7.26c-1.53-1.49-2.43-1.72-3.98-1.74
		C450.34,350.36,447.78,351.69,446.97,352.36z"/>
	<path class="st0" d="M224.47,420.89c-0.88,0.13-1.87-0.1-2.69,0.36c-1.16,0.64-0.78,3.26-0.63,4.1c0.23,1.26,0.49,2.52,0.96,3.74
		c0.68,1.77,2.52,3.17,4.43,3.26c2.25,0.11,2.91-1.23,2.8-3.25c-0.09-1.82,0.27-3.75-0.2-5.54c-0.34-1.32-0.76-1.74-1.6-2.27
		C226.97,420.92,225.13,420.8,224.47,420.89z"/>
	<path class="st0" d="M103.79,387.31c0.26-0.21,0.52-0.46,0.78-0.76c2.08-2.42,4.26-4.87,5.65-7.76c1.59-3.3,1.16-6.73,0.01-10.13
		c-0.84-2.48-2.51-5.16-5.43-5.19c-3.46-0.04-7.61-3.05-10.15,0.58c-1.27,1.81-1.76,4.42-2.37,6.53c-0.73,2.53-1.31,5.15-0.97,7.79
		c0.42,3.24,2.25,7.48,5.36,8.96C98.63,388.26,102,388.75,103.79,387.31z"/>
	<path class="st0" d="M317.55,415.74c-0.04,0.29-0.05,0.6-0.03,0.95c0.16,2.77,0.28,5.63,1.15,8.28c1,3.03,3.34,4.92,6.12,6.35
		c2.03,1.05,4.7,1.71,6.54-0.03c2.19-2.07,6.61-2.7,6.01-6.51c-0.3-1.91-1.57-3.84-2.46-5.52c-1.08-2.02-2.3-4.02-4.11-5.47
		c-2.22-1.78-5.94-3.33-8.78-2.37C320.21,412.02,317.8,413.75,317.55,415.74z"/>
	<path class="st0" d="M263.73,417.53c-0.13,0.31-0.23,0.65-0.31,1.04c-0.65,3.12-1.38,6.32-1.2,9.52c0.2,3.65,2.23,6.45,4.89,8.87
		c1.93,1.77,4.69,3.31,7.26,1.92c3.05-1.64,8.14-1.01,8.61-5.41c0.24-2.2-0.59-4.72-1.08-6.86c-0.59-2.57-1.34-5.14-2.92-7.29
		c-1.93-2.63-5.58-5.46-9.02-5.26C267.79,414.21,264.61,415.41,263.73,417.53z"/>
	<path class="st0" d="M428.35,391.59c-0.06-0.33-0.16-0.67-0.3-1.04c-1.15-2.97-2.28-6.05-4.18-8.64c-2.16-2.96-5.38-4.19-8.93-4.78
		c-2.58-0.43-5.74-0.22-7.14,2.34c-1.66,3.04-6.28,5.27-4.27,9.23c1,1.98,3.07,3.64,4.64,5.17c1.89,1.83,3.92,3.58,6.42,4.52
		c3.05,1.16,7.66,1.54,10.43-0.5C426.75,396.6,428.77,393.85,428.35,391.59z"/>
	<path class="st0" d="M495.38,336.19c0.15-0.29,0.28-0.62,0.4-1c0.91-3.04,1.91-6.15,2.02-9.35c0.12-3.65-1.63-6.63-4.03-9.29
		c-1.75-1.94-4.33-3.74-6.98-2.62c-3.15,1.34-8.1,0.21-8.96,4.55c-0.43,2.17,0.17,4.75,0.46,6.92c0.35,2.61,0.87,5.24,2.23,7.53
		c1.67,2.8,5.02,5.97,8.42,6.1C491.09,339.11,494.33,338.22,495.38,336.19z"/>
	<path class="st1" d="M582.25,264.21c0.15-0.29,0.28-0.62,0.4-1c0.91-3.04,1.91-6.15,2.02-9.35c0.12-3.65-1.63-6.63-4.03-9.29
		c-1.75-1.94-4.33-3.74-6.98-2.62c-3.15,1.34-8.1,0.21-8.96,4.55c-0.43,2.17,0.17,4.75,0.46,6.92c0.35,2.61,0.87,5.24,2.23,7.53
		c1.67,2.8,5.02,5.97,8.42,6.1C577.95,267.13,581.2,266.24,582.25,264.21z"/>
	<path class="st1" d="M1076.26,337.01c-0.31-0.1-0.67-0.17-1.06-0.21c-3.15-0.35-6.39-0.77-9.56-0.3c-3.61,0.54-6.22,2.8-8.41,5.64
		c-1.6,2.07-2.9,4.93-1.31,7.34c1.88,2.86,1.67,7.93,6.09,7.99c2.21,0.03,4.64-1.02,6.72-1.7c2.5-0.82,4.99-1.8,7-3.56
		c2.46-2.15,4.97-6.01,4.48-9.39C1079.9,340.71,1078.44,337.68,1076.26,337.01z"/>
	<path class="st1" d="M1107.75,393.44c0.21-0.25,0.41-0.55,0.6-0.89c1.54-2.77,3.18-5.6,3.97-8.71c0.9-3.54-0.18-6.82-1.96-9.94
		c-1.3-2.27-3.43-4.58-6.26-4.04c-3.36,0.64-7.96-1.52-9.72,2.54c-0.88,2.03-0.85,4.68-1.03,6.86c-0.21,2.62-0.26,5.3,0.58,7.83
		c1.03,3.1,3.63,6.9,6.93,7.75C1102.93,395.37,1106.29,395.2,1107.75,393.44z"/>
	<path class="st1" d="M1255.5,432.44c0.31-0.11,0.63-0.26,0.98-0.46c2.74-1.59,5.59-3.19,7.86-5.45c2.58-2.58,3.33-5.96,3.4-9.54
		c0.05-2.61-0.61-5.69-3.32-6.68c-3.21-1.17-6.07-5.37-9.65-2.79c-1.79,1.29-3.12,3.59-4.39,5.37c-1.52,2.14-2.94,4.42-3.51,7.03
		c-0.69,3.19-0.41,7.79,1.99,10.21C1250.37,431.64,1253.35,433.2,1255.5,432.44z"/>
	<path class="st1" d="M1366.26,359.45c0.19,0.32,0.43,0.66,0.73,1c2.38,2.73,4.79,5.59,7.82,7.64c3.46,2.34,7.41,2.45,11.45,1.75
		c2.95-0.51,6.26-1.92,6.78-5.17c0.62-3.86,4.72-7.97,1.05-11.44c-1.84-1.73-4.7-2.73-6.98-3.77c-2.74-1.25-5.6-2.34-8.65-2.42
		c-3.73-0.09-8.83,1.22-11.03,4.45C1366.05,353.52,1364.94,357.2,1366.26,359.45z"/>
	<path class="st1" d="M1616.81,246.79c0.31-0.11,0.63-0.26,0.98-0.46c2.74-1.59,5.59-3.19,7.86-5.45c2.58-2.58,3.33-5.96,3.4-9.54
		c0.05-2.61-0.61-5.69-3.32-6.68c-3.21-1.17-6.07-5.37-9.65-2.79c-1.79,1.29-3.12,3.59-4.39,5.37c-1.52,2.14-2.94,4.42-3.51,7.03
		c-0.69,3.19-0.41,7.79,1.99,10.21C1611.68,245.99,1614.66,247.55,1616.81,246.79z"/>
	<path class="st1" d="M1782.41,213.47c0-0.33-0.04-0.68-0.12-1.07c-0.61-3.11-1.18-6.33-2.58-9.21c-1.6-3.29-4.54-5.1-7.9-6.33
		c-2.45-0.9-5.58-1.29-7.39,0.95c-2.16,2.65-7.06,3.97-5.8,8.2c0.63,2.11,2.37,4.12,3.64,5.91c1.53,2.14,3.22,4.22,5.49,5.61
		c2.79,1.7,7.23,2.94,10.3,1.46C1779.97,218.05,1782.42,215.75,1782.41,213.47z"/>
	<path class="st1" d="M1562.48,206.69c0.05-0.33,0.06-0.68,0.05-1.08c-0.14-3.17-0.22-6.43-1.17-9.49
		c-1.09-3.49-3.72-5.72-6.86-7.45c-2.29-1.26-5.32-2.11-7.45-0.17c-2.53,2.3-7.58,2.87-6.96,7.24c0.31,2.19,1.72,4.43,2.71,6.38
		c1.19,2.35,2.55,4.66,4.59,6.37c2.5,2.1,6.7,3.99,9.96,2.98C1559.39,210.85,1562.16,208.95,1562.48,206.69z"/>
	<path class="st4" d="M1708.8,186.02c0.25-0.34,0.49-0.74,0.71-1.2c1.78-3.69,3.69-7.46,4.48-11.53c0.9-4.64-0.74-8.79-3.26-12.68
		c-1.84-2.84-4.77-5.66-8.38-4.76c-4.29,1.07-10.39-1.37-12.36,3.99c-0.99,2.68-0.75,6.1-0.82,8.93c-0.08,3.4,0.05,6.87,1.32,10.07
		c1.56,3.92,5.2,8.65,9.52,9.5C1702.73,188.87,1707.05,188.4,1708.8,186.02z"/>
	<path class="st1" d="M1832.65,199.75c-0.19,0.08-0.39,0.2-0.6,0.34c-1.66,1.14-3.39,2.28-4.72,3.82c-1.51,1.76-1.83,3.92-1.7,6.2
		c0.09,1.66,0.65,3.57,2.41,4.07c2.09,0.59,4.09,3.12,6.24,1.32c1.07-0.9,1.81-2.41,2.53-3.6c0.86-1.43,1.65-2.94,1.89-4.61
		c0.29-2.05-0.1-4.95-1.74-6.37C1835.94,200.02,1833.98,199.16,1832.65,199.75z"/>
	<path class="st1" d="M1877.42,222.8c0.12-0.17,0.22-0.37,0.32-0.6c0.79-1.85,1.63-3.74,1.92-5.76c0.33-2.29-0.57-4.29-1.9-6.14
		c-0.97-1.35-2.47-2.66-4.22-2.13c-2.08,0.62-5.12-0.43-5.96,2.25c-0.42,1.34-0.23,3.01-0.19,4.4c0.04,1.67,0.19,3.36,0.89,4.9
		c0.86,1.88,2.75,4.11,4.89,4.43C1874.51,224.34,1876.61,224.01,1877.42,222.8z"/>
	<path class="st1" d="M1910.94,244.79c0.28-0.05,0.57-0.13,0.89-0.26c2.54-0.97,5.17-1.93,7.4-3.53c2.54-1.83,3.64-4.58,4.18-7.6
		c0.4-2.2,0.26-4.9-1.89-6.1c-2.56-1.43-4.39-5.38-7.78-3.68c-1.69,0.85-3.13,2.6-4.45,3.94c-1.58,1.6-3.09,3.34-3.93,5.46
		c-1.02,2.6-1.42,6.53,0.29,8.91C1906.72,243.41,1909.02,245.14,1910.94,244.79z"/>
	<path class="st1" d="M1945.52,274.22c0.18-0.03,0.36-0.09,0.57-0.16c1.61-0.62,3.29-1.23,4.71-2.25c1.62-1.17,2.31-2.92,2.66-4.84
		c0.25-1.4,0.17-3.12-1.2-3.88c-1.63-0.91-2.8-3.42-4.95-2.35c-1.08,0.54-1.99,1.66-2.83,2.51c-1.01,1.02-1.97,2.12-2.5,3.48
		c-0.65,1.66-0.9,4.16,0.18,5.67C1942.83,273.34,1944.29,274.45,1945.52,274.22z"/>
	<path class="st1" d="M1173.69,413.45c0.21-0.25,0.41-0.55,0.6-0.9c1.54-2.77,3.18-5.6,3.97-8.71c0.9-3.54-0.18-6.82-1.96-9.94
		c-1.3-2.27-3.43-4.58-6.26-4.04c-3.36,0.64-7.96-1.52-9.72,2.54c-0.88,2.03-0.85,4.68-1.03,6.86c-0.21,2.62-0.26,5.3,0.58,7.83
		c1.03,3.1,3.63,6.9,6.93,7.75C1168.87,415.38,1172.23,415.2,1173.69,413.45z"/>
	<path class="st0" d="M527,287.82c0.15-0.29,0.28-0.62,0.4-1c0.91-3.04,1.91-6.15,2.02-9.35c0.12-3.65-1.63-6.63-4.03-9.29
		c-1.75-1.94-4.33-3.74-6.98-2.62c-3.15,1.34-8.1,0.21-8.96,4.55c-0.43,2.17,0.17,4.75,0.46,6.92c0.35,2.61,0.87,5.24,2.23,7.53
		c1.67,2.8,5.02,5.97,8.42,6.1C522.7,290.73,525.95,289.84,527,287.82z"/>
	<path class="st0" d="M523.99,231.76c0.32-0.05,0.67-0.14,1.04-0.28c2.98-1.08,6.07-2.14,8.71-3.96c3-2.08,4.34-5.27,5.05-8.78
		c0.51-2.56,0.42-5.71-2.07-7.16c-2.95-1.73-5.01-6.37-9-4.47c-1.99,0.95-3.71,2.97-5.28,4.5c-1.88,1.84-3.68,3.83-4.7,6.29
		c-1.25,3.01-1.79,7.59,0.14,10.4C519.09,230.05,521.74,232.13,523.99,231.76z"/>
	<path class="st1" d="M613.81,185.23c-2.03,0.04-4.21-0.73-6.19,0.06c-2.79,1.12-2.67,7.15-2.56,9.1c0.16,2.91,0.41,5.83,1.13,8.73
		c1.04,4.2,4.82,7.86,9.11,8.59c5.07,0.86,6.91-1.98,7.24-6.57c0.29-4.14,1.64-8.41,1.09-12.58c-0.4-3.07-1.23-4.15-2.98-5.58
		C619.46,185.99,615.33,185.19,613.81,185.23z"/>
	<path class="st1" d="M663.09,166.79c-1.37,0.93-3.21,1.36-4.21,2.78c-1.41,2,1.34,6.08,2.28,7.36c1.4,1.92,2.87,3.81,4.64,5.47
		c2.57,2.41,6.78,3.24,10.04,1.84c3.85-1.65,3.85-4.42,2.04-7.7c-1.63-2.96-2.61-6.48-4.83-9.09c-1.64-1.92-2.68-2.3-4.51-2.5
		C667.3,164.81,664.12,166.09,663.09,166.79z"/>
	<path class="st1" d="M896.1,278.83c1.54,0.6,2.94,1.87,4.68,1.89c2.45,0.03,4.24-4.55,4.77-6.05c0.79-2.24,1.51-4.52,1.87-6.93
		c0.53-3.49-1.17-7.42-4.18-9.32c-3.54-2.23-5.82-0.67-7.5,2.69c-1.51,3.02-3.86,5.82-4.75,9.13c-0.65,2.44-0.37,3.51,0.5,5.13
		C892.08,276.49,894.94,278.38,896.1,278.83z"/>
	<path class="st7" d="M728.78,161.83c-2.77-0.15-5.64-1.43-8.42-0.56c-3.91,1.23-4.37,9.44-4.42,12.1
		c-0.08,3.97-0.04,7.97,0.64,11.98c0.98,5.81,5.74,11.18,11.49,12.62c6.79,1.7,9.6-1.97,10.52-8.18c0.83-5.59,3.1-11.27,2.79-16.99
		c-0.23-4.22-1.24-5.77-3.47-7.9C736.38,163.45,730.86,161.94,728.78,161.83z"/>
	<path class="st8" d="M800.33,170.9c-2.76-1.1-5.25-3.39-8.37-3.44c-4.4-0.08-7.67,8.12-8.63,10.8c-1.44,4.02-2.77,8.09-3.45,12.41
		c-0.99,6.25,2.02,13.33,7.38,16.77c6.33,4.05,10.44,1.28,13.49-4.73c2.75-5.41,7-10.4,8.64-16.33c1.2-4.37,0.71-6.29-0.83-9.22
		C807.51,175.14,802.4,171.72,800.33,170.9z"/>
	<path class="st1" d="M844.4,189.5c-1.63,0.3-3.48-0.05-4.97,0.84c-2.1,1.26-1.23,6.1-0.89,7.65c0.51,2.32,1.08,4.64,2.03,6.88
		c1.38,3.25,4.89,5.71,8.44,5.75c4.19,0.04,5.31-2.48,4.98-6.22c-0.3-3.37,0.24-6.98-0.74-10.27c-0.72-2.42-1.52-3.18-3.11-4.11
		C849.05,189.39,845.62,189.28,844.4,189.5z"/>
	<path class="st1" d="M786.29,224.09c-1.63,0.3-3.48-0.05-4.97,0.84c-2.1,1.26-1.23,6.1-0.89,7.65c0.51,2.32,1.08,4.64,2.03,6.88
		c1.38,3.25,4.89,5.71,8.44,5.75c4.19,0.04,5.31-2.48,4.98-6.22c-0.3-3.37,0.24-6.98-0.74-10.27c-0.72-2.42-1.52-3.18-3.11-4.11
		C790.93,223.97,787.51,223.86,786.29,224.09z"/>
	<path class="st9" d="M904.22,196.71c-3.67-1.1-7.13-3.77-11.14-3.5c-5.66,0.39-8.95,11.28-9.89,14.84
		c-1.4,5.32-2.66,10.71-3.05,16.33c-0.57,8.14,4.07,16.91,11.35,20.73c8.59,4.5,13.56,0.48,16.82-7.58
		c2.93-7.26,7.85-14.15,9.29-21.95c1.06-5.75,0.21-8.17-2.09-11.75C913.92,201.36,906.98,197.54,904.22,196.71z"/>
	<path class="st1" d="M731.32,219.45c-1.29-0.53-2.45-1.62-3.91-1.67c-2.07-0.06-3.65,3.77-4.12,5.03c-0.7,1.88-1.35,3.79-1.69,5.81
		c-0.5,2.93,0.87,6.28,3.37,7.92c2.95,1.94,4.9,0.66,6.37-2.15c1.32-2.53,3.35-4.85,4.15-7.63c0.59-2.05,0.37-2.95-0.34-4.34
		C734.67,221.49,732.29,219.85,731.32,219.45z"/>
	<path class="st1" d="M615.53,234.17c-0.09,0.32-0.16,0.67-0.2,1.06c-0.33,3.15-0.73,6.4-0.23,9.56c0.56,3.61,2.84,6.2,5.7,8.37
		c2.08,1.58,4.95,2.86,7.35,1.26c2.84-1.9,7.92-1.73,7.95-6.14c0.01-2.21-1.05-4.64-1.75-6.71c-0.83-2.49-1.84-4.98-3.6-6.98
		c-2.17-2.44-6.05-4.93-9.42-4.41C619.2,230.5,616.18,231.98,615.53,234.17z"/>
	<path class="st10" d="M676.96,212.97c-0.37,0.41-0.73,0.89-1.08,1.46c-2.78,4.55-5.72,9.19-7.26,14.35
		c-1.75,5.89-0.16,11.47,2.61,16.83c2.02,3.91,5.45,7.93,10.24,7.22c5.69-0.84,13.27,3.1,16.5-3.59c1.62-3.34,1.75-7.8,2.2-11.45
		c0.54-4.39,0.81-8.89-0.43-13.19c-1.53-5.27-5.62-11.85-11.11-13.5C685.19,210.05,679.53,210.12,676.96,212.97z"/>
	<path class="st11" d="M829.98,238.62c-0.2,0.4-0.37,0.85-0.51,1.37c-1.15,4.14-2.41,8.38-2.46,12.72
		c-0.06,4.95,2.4,8.93,5.73,12.47c2.43,2.58,5.97,4.94,9.53,3.34c4.23-1.9,10.97-0.53,12-6.42c0.52-2.95-0.36-6.43-0.82-9.36
		c-0.55-3.52-1.33-7.07-3.24-10.13c-2.34-3.75-6.97-7.94-11.59-8.01C835.71,234.55,831.34,235.85,829.98,238.62z"/>
	<path class="st1" d="M950.9,239.22c-0.3,0.13-0.61,0.31-0.94,0.53c-2.61,1.79-5.34,3.59-7.43,6.02c-2.38,2.77-2.88,6.19-2.68,9.77
		c0.15,2.61,1.03,5.63,3.8,6.41c3.29,0.93,6.45,4.91,9.83,2.06c1.69-1.42,2.85-3.81,3.98-5.68c1.36-2.25,2.6-4.63,2.97-7.27
		c0.45-3.23-0.17-7.8-2.75-10.03C956.07,239.64,952.98,238.29,950.9,239.22z"/>
	<path class="st1" d="M936.08,282.14c-0.26,0.24-0.51,0.52-0.76,0.86c-2.01,2.71-4.13,5.46-5.39,8.62c-1.43,3.6-0.72,7.19,0.75,10.7
		c1.07,2.56,3.04,5.26,6.12,5.08c3.66-0.22,8.27,2.65,10.68-1.37c1.21-2.01,1.53-4.8,2.01-7.07c0.58-2.73,0.99-5.54,0.44-8.3
		c-0.68-3.39-2.94-7.74-6.33-9.07C941.46,280.75,937.86,280.48,936.08,282.14z"/>
	<path class="st1" d="M1021.64,314.71c0.25-0.25,0.5-0.54,0.74-0.88c1.93-2.76,3.98-5.58,5.14-8.77c1.33-3.64,0.52-7.21-1.06-10.67
		c-1.15-2.53-3.19-5.18-6.26-4.9c-3.66,0.33-8.34-2.41-10.64,1.68c-1.15,2.05-1.39,4.84-1.81,7.13c-0.5,2.74-0.84,5.56-0.2,8.31
		c0.78,3.37,3.16,7.65,6.59,8.88C1016.3,316.25,1019.9,316.41,1021.64,314.71z"/>
	<path class="st0" d="M224.33,384.68c-0.22,0.2-0.43,0.44-0.64,0.73c-1.7,2.29-3.5,4.62-4.56,7.29c-1.21,3.05-0.61,6.08,0.63,9.05
		c0.91,2.16,2.57,4.45,5.18,4.3c3.1-0.19,6.99,2.24,9.04-1.16c1.02-1.7,1.3-4.06,1.7-5.98c0.49-2.31,0.84-4.68,0.37-7.02
		c-0.58-2.87-2.48-6.54-5.36-7.67C228.89,383.51,225.84,383.28,224.33,384.68z"/>
	<path class="st1" d="M982.74,321.17c-0.36,0.11-0.73,0.26-1.13,0.46c-3.19,1.63-6.5,3.26-9.18,5.67
		c-3.05,2.76-4.07,6.51-4.31,10.54c-0.18,2.94,0.42,6.44,3.44,7.71c3.59,1.51,6.62,6.41,10.81,3.71c2.09-1.35,3.71-3.85,5.24-5.78
		c1.83-2.32,3.55-4.8,4.31-7.7c0.94-3.55,0.84-8.74-1.77-11.6C988.52,322.37,985.21,320.43,982.74,321.17z"/>
	<path class="st1" d="M1037.12,412.21c0.43-0.31,0.86-0.7,1.29-1.16c3.49-3.72,7.16-7.5,9.59-12.03c2.77-5.17,2.33-10.69,0.72-16.22
		c-1.17-4.03-3.66-8.44-8.33-8.69c-5.55-0.3-11.97-5.41-16.3,0.22c-2.16,2.82-3.13,6.96-4.25,10.28c-1.34,4-2.45,8.15-2.09,12.41
		c0.44,5.22,3.08,12.14,7.96,14.72C1028.78,413.37,1034.15,414.39,1037.12,412.21z"/>
	<path class="st12" d="M1328.97,445.61c-1.64,0.17-3.45-0.31-4.99,0.47c-2.17,1.09-1.66,5.95-1.44,7.52
		c0.33,2.34,0.73,4.68,1.51,6.97c1.13,3.32,4.43,6.01,7.94,6.31c4.15,0.35,5.44-2.07,5.39-5.8c-0.05-3.36,0.75-6.9,0.02-10.23
		c-0.54-2.45-1.28-3.27-2.78-4.3C1333.58,445.83,1330.2,445.48,1328.97,445.61z"/>
	<path class="st1" d="M1405.71,372.55c-1.7,1.4-4.07,2.2-5.22,4.2c-1.62,2.82,2.53,7.87,3.93,9.46c2.09,2.37,4.27,4.68,6.82,6.67
		c3.7,2.87,9.37,3.45,13.52,1.2c4.89-2.66,4.55-6.32,1.75-10.45c-2.53-3.72-4.25-8.26-7.52-11.44c-2.41-2.34-3.83-2.71-6.28-2.75
		C1411.03,369.41,1406.99,371.5,1405.71,372.55z"/>
	<path class="st13" d="M1713.4,220.11c1.17-1.87,3.17-3.38,3.62-5.64c0.64-3.19-4.9-6.67-6.73-7.72c-2.74-1.58-5.53-3.09-8.58-4.16
		c-4.42-1.55-9.99-0.3-13.2,3.15c-3.79,4.08-2.32,7.44,1.65,10.46c3.58,2.72,6.65,6.49,10.75,8.47c3.02,1.46,4.49,1.35,6.83,0.62
		C1709.36,224.77,1712.53,221.51,1713.4,220.11z"/>
	<path class="st1" d="M1089.89,418.51c-0.24,0.22-0.47,0.48-0.7,0.79c-1.86,2.5-3.82,5.04-4.98,7.96c-1.32,3.33-0.67,6.64,0.69,9.88
		c0.99,2.36,2.81,4.86,5.65,4.69c3.38-0.2,7.64,2.45,9.87-1.27c1.11-1.86,1.42-4.44,1.86-6.53c0.53-2.52,0.92-5.11,0.4-7.67
		c-0.63-3.13-2.71-7.14-5.85-8.37C1094.87,417.22,1091.54,416.98,1089.89,418.51z"/>
</g>
</svg>
