<?xml version="1.0" encoding="utf-8"?>
<!-- Generator: Adobe Illustrator 24.0.1, SVG Export Plug-In . SVG Version: 6.00 Build 0)  -->
<svg version="1.1" id="Layer_1" xmlns="http://www.w3.org/2000/svg" xmlns:xlink="http://www.w3.org/1999/xlink" x="0px" y="0px"
	 viewBox="0 0 2187.6 612" style="enable-background:new 0 0 2187.6 612;" xml:space="preserve">
<style type="text/css">
	.st0{fill:#8491C8;}
	.st1{fill:#2B3990;}
</style>
<g>
	<path class="st0" d="M7.1,332.3c0.7,0.2,1.4,0.7,2.2,0.6c1.1-0.1,1.7-2.2,1.8-2.8c0.2-1,0.5-2,0.5-3.1c0.1-1.5-0.9-3.1-2.3-3.8
		c-1.7-0.8-2.6,0-3.2,1.5c-0.5,1.4-1.4,2.7-1.7,4.2c-0.2,1.1,0,1.5,0.5,2.2C5.2,331.5,6.5,332.2,7.1,332.3z"/>
	<path class="st0" d="M34.5,348.2c1.2-0.1,2.6,0.4,3.7-0.1c1.7-0.7,1.5-4.2,1.4-5.4c-0.2-1.7-0.4-3.4-0.8-5.1
		c-0.7-2.4-3.1-4.5-5.7-4.9c-3.1-0.4-4.1,1.3-4.2,4c-0.1,2.4-0.8,5-0.4,7.4c0.3,1.8,0.8,2.4,1.9,3.2
		C31.1,347.9,33.6,348.2,34.5,348.2z"/>
	<path class="st0" d="M104.1,382.9c-1.5-0.6-2.8-1.9-4.6-2c-2.4-0.1-4.4,4.2-4.9,5.6c-0.9,2.1-1.7,4.3-2.1,6.6
		c-0.6,3.3,0.9,7.2,3.8,9.1c3.4,2.3,5.7,0.9,7.5-2.3c1.6-2.8,4-5.4,5-8.6c0.7-2.3,0.5-3.4-0.3-4.9
		C108,385.3,105.3,383.3,104.1,382.9z"/>
	<path class="st0" d="M147.7,426c2.1-0.3,4.4,0.3,6.4-0.7c2.8-1.4,2-7.5,1.6-9.4c-0.5-2.9-1.1-5.8-2.1-8.6
		c-1.5-4.1-5.8-7.4-10.4-7.6c-5.3-0.3-6.9,2.7-6.8,7.4c0.1,4.2-0.8,8.6,0.2,12.7c0.8,3,1.7,4,3.7,5.3
		C141.7,425.8,146.1,426.2,147.7,426z"/>
	<path class="st0" d="M238,429c0.9-0.4,2-0.5,2.7-1.2c1-1-0.3-3.6-0.7-4.4c-0.7-1.2-1.4-2.4-2.3-3.5c-1.3-1.6-3.7-2.4-5.7-1.9
		c-2.4,0.6-2.6,2.2-1.8,4.2c0.7,1.8,1,3.9,2.1,5.6c0.8,1.2,1.4,1.5,2.4,1.8C235.4,429.7,237.3,429.3,238,429z"/>
	<path class="st0" d="M279.9,409.2c-1.5,0.7-3.3,0.9-4.5,2.1c-1.6,1.7,0.6,6,1.3,7.3c1.1,2,2.3,4,3.9,5.8c2.2,2.6,6.2,3.9,9.6,3
		c4-1.1,4.3-3.7,3-7.1c-1.2-3-1.7-6.5-3.6-9.2c-1.4-2-2.3-2.5-4.1-2.9C284.2,407.8,281,408.6,279.9,409.2z"/>
	<path class="st0" d="M335.3,396.4c-1.2,0.1-2.6-0.2-3.8,0.3c-1.7,0.8-1.3,4.4-1.1,5.5c0.2,1.7,0.5,3.5,1.1,5.1
		c0.8,2.5,3.3,4.5,6,4.7c3.1,0.3,4.1-1.5,4.1-4.2c0-2.5,0.6-5.1,0.1-7.5c-0.4-1.8-1-2.4-2.1-3.2
		C338.8,396.6,336.2,396.3,335.3,396.4z"/>
	<path class="st0" d="M413.1,330.2c-1.6,0.2-3.4-0.3-5,0.5c-2.2,1.1-1.7,5.8-1.4,7.3c0.3,2.3,0.7,4.5,1.5,6.7
		c1.1,3.2,4.4,5.8,7.9,6.1c4.1,0.3,5.4-2,5.4-5.6c0-3.2,0.8-6.7,0-9.9c-0.5-2.4-1.3-3.2-2.8-4.2
		C417.6,330.4,414.3,330.1,413.1,330.2z"/>
	<path class="st0" d="M456.9,291c-1.2-0.5-2.2-1.6-3.6-1.7c-1.9-0.1-3.6,3.3-4.1,4.4c-0.7,1.7-1.4,3.4-1.8,5.2
		c-0.6,2.6,0.6,5.7,2.8,7.3c2.7,1.9,4.6,0.8,6-1.7c1.3-2.2,3.3-4.3,4.2-6.8c0.6-1.8,0.5-2.7-0.1-4C459.9,293,457.8,291.4,456.9,291z
		"/>
	<path class="st1" d="M523.6,216.2c-1.6-0.2-3.3-0.9-5-0.6c-2.3,0.5-2.9,4.8-3.1,6.2c-0.2,2.1-0.3,4.2-0.1,6.3c0.4,3.1,3,6.1,6.3,7
		c4,1.1,5.7-0.7,6.5-3.9c0.7-2.9,2.3-5.8,2.3-8.8c0-2.2-0.5-3.1-1.8-4.3C528,217.3,524.8,216.3,523.6,216.2z"/>
	<path class="st1" d="M1153.9,414.6c-1.6-0.6-3-1.8-4.9-1.8c-2.6,0-4.9,4.5-5.6,6c-1,2.2-2,4.5-2.6,6.9c-0.8,3.5,0.7,7.3,3.8,9.2
		c3.6,2.2,6.2,0.6,8.3-2.7c1.9-3,4.6-5.8,5.8-9.1c0.9-2.4,0.7-3.5-0.1-5.1C1158,416.8,1155.1,415,1153.9,414.6z"/>
	<path class="st1" d="M1092.3,412.6c-1.4,0.8-3.2,1.2-4.2,2.5c-1.4,1.8,1.3,5.3,2.3,6.5c1.4,1.7,2.8,3.4,4.6,4.8
		c2.5,2.1,6.7,2.9,9.9,1.6c3.8-1.5,3.8-3.9,2-6.8c-1.6-2.6-2.6-5.7-4.8-8c-1.6-1.7-2.7-2-4.5-2.2
		C1096.4,410.8,1093.3,412,1092.3,412.6z"/>
	<path class="st1" d="M1214.5,442.8c1.6,0.2,3.2,0.9,4.8,0.5c2.3-0.5,2.8-4.6,2.9-6c0.2-2,0.3-4,0.1-6.1c-0.4-3-2.9-5.8-6.1-6.7
		c-3.8-1.1-5.5,0.7-6.3,3.8c-0.7,2.8-2.2,5.6-2.2,8.5c0,2.1,0.5,3,1.7,4.1C1210.2,441.8,1213.3,442.7,1214.5,442.8z"/>
	<path class="st1" d="M1308.8,407.4c-1.3,0.1-2.7-0.1-3.9,0.4c-1.7,0.8-1.2,4.2-1,5.3c0.3,1.6,0.7,3.2,1.3,4.8
		c1,2.3,3.6,4.1,6.3,4.3c3.3,0.2,4.2-1.5,4.1-4.1c-0.1-2.3,0.4-4.8-0.2-7.1c-0.5-1.7-1.1-2.3-2.3-2.9
		C1312.4,407.4,1309.8,407.2,1308.8,407.4z"/>
	<path class="st1" d="M1256.5,374.8c-1.6,0.4-3.4,0.2-4.9,1c-2,1.2-0.8,5.4-0.4,6.8c0.7,2,1.4,4,2.5,5.9c1.6,2.8,5.2,4.7,8.7,4.6
		c4.1-0.2,5.1-2.5,4.5-5.8c-0.5-2.9-0.2-6.2-1.4-9c-0.9-2.1-1.7-2.7-3.3-3.4C1261.1,374.4,1257.7,374.5,1256.5,374.8z"/>
	<path class="st1" d="M1492.2,292.6c1.6-0.1,3.4,0.4,5-0.2c2.2-0.9,1.9-5.2,1.8-6.6c-0.2-2.1-0.5-4.2-1.2-6.2c-1-3-4.1-5.5-7.6-5.9
		c-4.1-0.5-5.5,1.6-5.6,4.9c-0.1,3-1,6.1-0.5,9c0.4,2.2,1.1,2.9,2.6,3.9C1487.6,292.2,1490.9,292.7,1492.2,292.6z"/>
	<path class="st1" d="M1815.7,232.4c1.4,0.4,2.6,1.4,4.2,1.4c2.2,0,3.7-3.7,4.1-4.9c0.6-1.8,1.2-3.6,1.5-5.5
		c0.4-2.8-1.2-5.8-3.9-7.3c-3.2-1.7-5.2-0.4-6.6,2.3c-1.3,2.4-3.3,4.7-4,7.3c-0.5,1.9-0.2,2.8,0.6,4
		C1812.1,230.6,1814.6,232.1,1815.7,232.4z"/>
	<path class="st1" d="M1855,228.7c-1.6,0.1-3.4-0.3-5,0.4c-2.2,0.9-1.7,5.3-1.5,6.6c0.3,2.1,0.7,4.1,1.4,6.2
		c1.1,2.9,4.4,5.4,7.8,5.6c4.1,0.3,5.4-1.8,5.4-5.1c0-3,0.8-6.1,0.1-9.1c-0.5-2.2-1.2-2.9-2.7-3.8
		C1859.6,229,1856.2,228.6,1855,228.7z"/>
	<path class="st1" d="M1888.1,247.6c-1.6,0.1-3.4-0.3-5,0.4c-2.2,0.9-1.7,5.3-1.5,6.6c0.3,2.1,0.7,4.1,1.4,6.2
		c1.1,2.9,4.4,5.4,7.8,5.6c4.1,0.3,5.4-1.8,5.4-5.1c0-3,0.8-6.1,0.1-9.1c-0.5-2.2-1.2-2.9-2.7-3.8
		C1892.7,247.9,1889.3,247.5,1888.1,247.6z"/>
	<path class="st1" d="M1336.6,336.3c1.9-0.7,4.2-0.7,5.7-1.9c2.2-1.8,0-6.7-0.8-8.3c-1.2-2.4-2.4-4.7-4.1-6.8
		c-2.4-3.1-7.2-5-11.4-4.3c-5,0.8-5.7,3.7-4.4,7.6c1.2,3.5,1.4,7.4,3.3,10.7c1.4,2.4,2.6,3,4.7,3.7
		C1331.1,337.4,1335.2,336.8,1336.6,336.3z"/>
	<path class="st1" d="M1390,344.6c0.6-1.4,1.8-2.6,1.7-4.2c-0.1-2.1-4.6-3.6-6.1-4c-2.2-0.6-4.5-1.2-6.9-1.5
		c-3.5-0.4-7.3,1.2-9.1,3.9c-2.1,3.2-0.5,5.1,2.9,6.5c3,1.2,5.9,3.2,9.2,3.9c2.4,0.5,3.5,0.2,5.1-0.6
		C1387.8,348.2,1389.6,345.6,1390,344.6z"/>
	<path class="st1" d="M1420.6,304.8c-1.5,0.7-3.3,0.8-4.5,2c-1.6,1.6,0.6,5.4,1.3,6.7c1.1,1.8,2.3,3.6,3.9,5.3
		c2.2,2.4,6.3,3.6,9.6,2.7c4-1,4.3-3.4,2.9-6.5c-1.2-2.8-1.8-5.9-3.6-8.5c-1.4-1.9-2.3-2.3-4.1-2.7
		C1425,303.5,1421.7,304.3,1420.6,304.8z"/>
	<path class="st1" d="M1368.2,297.1c1.6,0.1,3.3,0.9,5,0.5c2.3-0.6,2.8-4.9,2.9-6.3c0.2-2.1,0.2-4.2-0.1-6.3c-0.4-3.1-3.1-6-6.5-6.9
		c-4-1-5.7,0.8-6.4,4.1c-0.6,2.9-2.1,5.9-2.1,8.9c0,2.2,0.6,3.1,1.8,4.2C1363.8,296.1,1367,297,1368.2,297.1z"/>
	<path class="st1" d="M1434.3,270.1c1.6,0.1,3.3,0.9,5,0.5c2.3-0.6,2.8-4.9,2.9-6.3c0.2-2.1,0.2-4.2-0.1-6.3c-0.4-3.1-3.1-6-6.5-6.9
		c-4-1-5.7,0.8-6.4,4.1c-0.6,2.9-2.1,5.8-2.1,8.9c0,2.2,0.6,3.1,1.8,4.2C1429.8,269.1,1433.1,270,1434.3,270.1z"/>
	<path class="st1" d="M1557.5,223.5c1.6-0.2,3.4,0.1,4.9-0.6c2.1-1.1,1.3-5.3,1-6.7c-0.4-2.1-1-4.1-1.9-6.1
		c-1.3-2.9-4.7-5.1-8.2-5.2c-4.1-0.1-5.3,2.1-5.1,5.4c0.2,3-0.4,6.1,0.5,9c0.7,2.1,1.4,2.8,3,3.7
		C1552.9,223.5,1556.3,223.6,1557.5,223.5z"/>
	<path class="st1" d="M1711.1,194.8c-1.5,0-3.2-0.6-4.7-0.2c-2.1,0.7-2.3,4.7-2.2,6c0,2,0.1,3.9,0.6,5.9c0.6,2.8,3.4,5.4,6.6,6
		c3.8,0.7,5.3-1.1,5.7-4.2c0.4-2.8,1.5-5.6,1.3-8.4c-0.2-2.1-0.8-2.8-2.1-3.8C1715.4,195.5,1712.3,194.8,1711.1,194.8z"/>
	<path class="st1" d="M1770,204.3c-1.3,0.1-2.7-0.2-3.9,0.4c-1.7,0.8-1.2,4.2-1,5.2c0.3,1.6,0.7,3.2,1.3,4.8
		c0.9,2.3,3.6,4.1,6.3,4.2c3.2,0.2,4.2-1.5,4.1-4.1c-0.1-2.3,0.5-4.8-0.2-7.1c-0.5-1.7-1.1-2.2-2.2-2.9
		C1773.6,204.4,1771,204.2,1770,204.3z"/>
	<path class="st0" d="M379.4,362.7c-1.6,0.4-3.4,0.3-4.8,1.3c-1.9,1.4-0.6,5.9-0.1,7.4c0.7,2.2,1.5,4.3,2.7,6.4c1.7,3,5.4,5,8.8,4.7
		c4.1-0.4,5-2.9,4.3-6.4c-0.6-3.2-0.4-6.7-1.7-9.7c-0.9-2.2-1.8-2.9-3.5-3.6C383.9,362.2,380.6,362.4,379.4,362.7z"/>
	<path class="st0" d="M66.6,349.9c-0.3,0.2-0.7,0.5-1,0.8c-2.7,2.6-5.5,5.3-7.5,8.5c-2.2,3.7-2,7.7-0.9,11.8c0.8,3,2.5,6.2,6,6.5
		c4.1,0.4,8.8,4.2,12.2,0.2c1.7-2,2.5-5,3.4-7.4c1.1-2.9,2-5.9,1.9-9c-0.2-3.8-2-8.9-5.6-10.9C72.9,349.2,68.9,348.4,66.6,349.9z"/>
	<path class="st0" d="M12.3,375.3c1.2,0,2.5,0.4,3.7-0.1c1.6-0.7,1.5-4.1,1.4-5.2c-0.1-1.7-0.3-3.3-0.8-5c-0.7-2.4-2.9-4.4-5.5-4.8
		c-3-0.4-4.1,1.2-4.2,3.9c-0.1,2.4-0.9,4.8-0.5,7.2c0.3,1.8,0.8,2.4,1.8,3.2C8.9,375,11.4,375.4,12.3,375.3z"/>
	<path class="st0" d="M43.2,375.1c-0.9-0.3-1.8-0.9-2.8-0.8c-1.4,0.1-2.3,2.8-2.5,3.7c-0.3,1.3-0.7,2.7-0.7,4
		c-0.1,2,1.1,4.2,2.9,5.1c2.2,1.1,3.5,0.1,4.3-1.9c0.7-1.8,2-3.5,2.3-5.5c0.3-1.4,0-2-0.6-2.9C45.7,376.2,43.9,375.3,43.2,375.1z"/>
	<path class="st0" d="M105.9,449c2.5,0,5.2,1,7.6,0.1c3.5-1.2,3.6-8.5,3.5-10.8c-0.1-3.5-0.3-7-1.1-10.5c-1.1-5.1-5.7-9.6-10.9-10.6
		c-6.2-1.2-8.6,2.1-9.2,7.6c-0.5,5-2.3,10-1.8,15c0.4,3.7,1.4,5,3.5,6.8C99,447.9,104,449,105.9,449z"/>
	<path class="st0" d="M148.6,446.5c-1.4,0.2-2.9-0.1-4.2,0.5c-1.8,1-1.2,4.9-1,6.2c0.4,1.9,0.8,3.8,1.5,5.6c1.1,2.7,3.9,4.8,6.9,4.9
		c3.5,0.2,4.5-1.9,4.3-4.9c-0.1-2.7,0.4-5.6-0.3-8.3c-0.5-2-1.2-2.6-2.5-3.4C152.5,446.5,149.7,446.3,148.6,446.5z"/>
	<path class="st0" d="M340.8,446c1.2-0.7,2.7-1,3.6-2.1c1.3-1.6-0.9-5-1.6-6c-1.1-1.6-2.2-3.2-3.6-4.6c-2-2-5.5-2.9-8.3-1.9
		c-3.3,1.2-3.4,3.4-2,6.1c1.2,2.5,1.9,5.3,3.7,7.5c1.3,1.6,2.1,2,3.7,2.2C337.2,447.4,339.9,446.5,340.8,446z"/>
	<path class="st0" d="M408.7,386.3c-1.1,0.9-2.6,1.3-3.3,2.6c-1,1.7,1.6,4.8,2.5,5.8c1.3,1.4,2.7,2.9,4.3,4.1
		c2.3,1.8,5.9,2.1,8.5,0.7c3.1-1.6,2.9-3.9,1.1-6.4c-1.6-2.3-2.7-5-4.7-7c-1.5-1.4-2.4-1.6-3.9-1.7
		C412,384.4,409.5,385.6,408.7,386.3z"/>
	<path class="st0" d="M188.7,452c-0.9,0.1-1.9-0.1-2.7,0.3c-1.1,0.6-0.8,3.1-0.6,3.9c0.2,1.2,0.5,2.4,0.9,3.6c0.7,1.7,2.5,3,4.4,3.1
		c2.2,0.1,2.9-1.2,2.8-3.1c-0.1-1.8,0.3-3.6-0.2-5.3c-0.3-1.3-0.8-1.7-1.6-2.2C191.1,452.1,189.3,452,188.7,452z"/>
	<path class="st0" d="M69.4,419.8c0.3-0.2,0.5-0.4,0.8-0.7c2.1-2.3,4.2-4.7,5.6-7.5c1.6-3.2,1.1-6.5,0-9.7c-0.8-2.4-2.5-5-5.4-5
		c-3.4,0-7.5-2.9-10,0.6c-1.3,1.7-1.8,4.2-2.3,6.3c-0.7,2.4-1.3,4.9-1,7.5c0.4,3.1,2.2,7.2,5.3,8.6
		C64.2,420.7,67.6,421.2,69.4,419.8z"/>
	<path class="st0" d="M280.7,447.1c0,0.3,0,0.6,0,0.9c0.2,2.7,0.3,5.4,1.1,8c1,2.9,3.3,4.7,6,6.1c2,1,4.6,1.6,6.5,0
		c2.2-2,6.5-2.6,5.9-6.2c-0.3-1.8-1.5-3.7-2.4-5.3c-1.1-1.9-2.3-3.9-4.1-5.2c-2.2-1.7-5.9-3.2-8.7-2.3
		C283.4,443.5,281,445.2,280.7,447.1z"/>
	<path class="st0" d="M227.5,448.8c-0.1,0.3-0.2,0.6-0.3,1c-0.6,3-1.4,6.1-1.2,9.1c0.2,3.5,2.2,6.2,4.8,8.5c1.9,1.7,4.6,3.2,7.2,1.9
		c3-1.6,8-1,8.5-5.2c0.2-2.1-0.6-4.5-1.1-6.6c-0.6-2.5-1.3-4.9-2.9-7c-1.9-2.5-5.5-5.2-8.9-5C231.5,445.6,228.4,446.8,227.5,448.8z"
		/>
	<path class="st0" d="M390.3,423.9c-0.1-0.3-0.2-0.6-0.3-1c-1.1-2.9-2.3-5.8-4.1-8.3c-2.1-2.8-5.3-4-8.8-4.6
		c-2.6-0.4-5.7-0.2-7.1,2.2c-1.6,2.9-6.2,5.1-4.2,8.9c1,1.9,3,3.5,4.6,5c1.9,1.8,3.9,3.4,6.4,4.3c3,1.1,7.6,1.5,10.3-0.5
		C388.7,428.7,390.7,426.1,390.3,423.9z"/>
	<path class="st0" d="M456.6,370.8c0.2-0.3,0.3-0.6,0.4-1c0.9-2.9,1.9-5.9,2-9c0.1-3.5-1.6-6.4-4-8.9c-1.7-1.9-4.3-3.6-6.9-2.5
		c-3.1,1.3-8,0.2-8.9,4.4c-0.4,2.1,0.2,4.6,0.5,6.6c0.4,2.5,0.9,5,2.2,7.2c1.6,2.7,5,5.7,8.3,5.9
		C452.3,373.6,455.5,372.7,456.6,370.8z"/>
	<path class="st1" d="M540.5,274c0.2-0.3,0.3-0.5,0.4-0.9c0.9-2.7,1.9-5.4,2-8.2c0.1-3.2-1.6-5.8-4-8.2c-1.7-1.7-4.3-3.3-6.9-2.3
		c-3.1,1.2-8,0.2-8.9,4c-0.4,1.9,0.2,4.2,0.5,6.1c0.3,2.3,0.9,4.6,2.2,6.6c1.7,2.5,5,5.2,8.3,5.4C536.2,276.5,539.4,275.8,540.5,274
		z"/>
	<path class="st1" d="M1020.9,318c-0.3-0.1-0.7-0.1-1.1-0.2c-3.1-0.3-6.3-0.7-9.4-0.3c-3.6,0.5-6.2,2.5-8.3,5
		c-1.6,1.8-2.9,4.3-1.3,6.5c1.9,2.5,1.7,7,6,7c2.2,0,4.6-0.9,6.7-1.5c2.5-0.7,4.9-1.6,6.9-3.1c2.4-1.9,4.9-5.3,4.4-8.2
		C1024.5,321.2,1023.1,318.6,1020.9,318z"/>
	<path class="st1" d="M1052.1,367.6c0.2-0.2,0.4-0.5,0.6-0.8c1.5-2.4,3.1-4.9,3.9-7.6c0.9-3.1-0.2-6-1.9-8.7c-1.3-2-3.4-4-6.2-3.5
		c-3.3,0.6-7.9-1.3-9.6,2.2c-0.9,1.8-0.8,4.1-1,6c-0.2,2.3-0.3,4.7,0.6,6.9c1,2.7,3.6,6.1,6.9,6.8
		C1047.3,369.3,1050.6,369.1,1052.1,367.6z"/>
	<path class="st1" d="M1198.2,401.9c0.3-0.1,0.6-0.2,1-0.4c2.7-1.4,5.5-2.8,7.8-4.8c2.6-2.3,3.3-5.2,3.4-8.4c0.1-2.3-0.6-5-3.3-5.9
		c-3.2-1-6-4.7-9.5-2.5c-1.8,1.1-3.1,3.1-4.3,4.7c-1.5,1.9-2.9,3.9-3.5,6.2c-0.7,2.8-0.4,6.9,2,9
		C1193.1,401.2,1196.1,402.5,1198.2,401.9z"/>
	<path class="st1" d="M1298.7,368.7c0.2,0.3,0.4,0.6,0.7,0.9c2.4,2.4,4.7,4.9,7.7,6.7c3.4,2.1,7.3,2.1,11.3,1.5
		c2.9-0.5,6.2-1.7,6.7-4.5c0.6-3.4,4.7-7,1-10c-1.8-1.5-4.7-2.4-6.9-3.3c-2.7-1.1-5.5-2.1-8.6-2.1c-3.7-0.1-8.7,1.1-10.9,3.9
		C1298.5,363.5,1297.4,366.7,1298.7,368.7z"/>
	<path class="st1" d="M1554.4,279.7c0.3-0.1,0.6-0.2,1-0.4c2.7-1.4,5.5-2.8,7.8-4.8c2.6-2.3,3.3-5.2,3.4-8.4c0.1-2.3-0.6-5-3.3-5.9
		c-3.2-1-6-4.7-9.5-2.5c-1.8,1.1-3.1,3.1-4.3,4.7c-1.5,1.9-2.9,3.9-3.5,6.2c-0.7,2.8-0.4,6.9,2,9
		C1549.4,279,1552.3,280.4,1554.4,279.7z"/>
	<path class="st1" d="M1718.2,250.4c0-0.3,0-0.6-0.1-0.9c-0.6-2.7-1.2-5.6-2.6-8.1c-1.6-2.9-4.5-4.5-7.8-5.6
		c-2.4-0.8-5.5-1.1-7.3,0.8c-2.1,2.3-7,3.5-5.7,7.2c0.6,1.9,2.3,3.6,3.6,5.2c1.5,1.9,3.2,3.7,5.4,4.9c2.8,1.5,7.2,2.6,10.2,1.3
		C1715.8,254.4,1718.2,252.4,1718.2,250.4z"/>
	<path class="st1" d="M1500.7,244.4c0.1-0.3,0.1-0.6,0.1-0.9c-0.1-2.8-0.2-5.7-1.2-8.4c-1.1-3.1-3.7-5-6.8-6.6
		c-2.3-1.1-5.3-1.9-7.4-0.1c-2.5,2-7.5,2.5-6.9,6.4c0.3,1.9,1.7,3.9,2.7,5.6c1.2,2.1,2.5,4.1,4.5,5.6c2.5,1.8,6.6,3.5,9.8,2.6
		C1497.7,248.1,1500.4,246.4,1500.7,244.4z"/>
	<path class="st1" d="M1639.2,213.9c0.2-0.2,0.3-0.4,0.5-0.7c1.2-2.2,2.5-4.4,3-6.9c0.6-2.8-0.5-5.2-2.2-7.6
		c-1.2-1.7-3.2-3.4-5.6-2.8c-2.9,0.6-7-0.8-8.3,2.4c-0.7,1.6-0.5,3.6-0.5,5.3c-0.1,2,0,4.1,0.9,6c1.1,2.3,3.5,5.2,6.4,5.7
		C1635.2,215.6,1638.1,215.3,1639.2,213.9z"/>
	<path class="st1" d="M1767.9,238.3c-0.2,0.1-0.4,0.2-0.6,0.3c-1.6,1-3.3,2-4.7,3.4c-1.5,1.5-1.8,3.4-1.7,5.4
		c0.1,1.5,0.6,3.1,2.4,3.6c2.1,0.5,4,2.7,6.2,1.2c1.1-0.8,1.8-2.1,2.5-3.2c0.8-1.3,1.6-2.6,1.9-4.1c0.3-1.8-0.1-4.4-1.7-5.6
		C1771.1,238.6,1769.2,237.8,1767.9,238.3z"/>
	<path class="st1" d="M1812.1,258.6c0.1-0.1,0.2-0.3,0.3-0.5c0.8-1.6,1.6-3.3,1.9-5.1c0.3-2-0.6-3.8-1.9-5.4c-1-1.2-2.4-2.3-4.2-1.9
		c-2.1,0.6-5.1-0.4-5.9,2c-0.4,1.2-0.2,2.6-0.2,3.9c0,1.5,0.2,3,0.9,4.3c0.8,1.7,2.7,3.6,4.8,3.9
		C1809.2,259.9,1811.3,259.6,1812.1,258.6z"/>
	<path class="st1" d="M1845.3,277.9c0.3,0,0.6-0.1,0.9-0.2c2.5-0.9,5.1-1.7,7.3-3.1c2.5-1.6,3.6-4,4.1-6.7c0.4-1.9,0.3-4.3-1.9-5.4
		c-2.5-1.3-4.3-4.7-7.7-3.2c-1.7,0.7-3.1,2.3-4.4,3.5c-1.6,1.4-3.1,2.9-3.9,4.8c-1,2.3-1.4,5.7,0.3,7.8
		C1841.1,276.7,1843.4,278.2,1845.3,277.9z"/>
	<path class="st1" d="M1879.5,303.8c0.2,0,0.4-0.1,0.6-0.1c1.6-0.5,3.2-1.1,4.7-2c1.6-1,2.3-2.6,2.6-4.2c0.2-1.2,0.2-2.7-1.2-3.4
		c-1.6-0.8-2.8-3-4.9-2.1c-1.1,0.5-2,1.5-2.8,2.2c-1,0.9-1.9,1.9-2.5,3.1c-0.7,1.5-0.9,3.7,0.2,5
		C1876.8,303,1878.3,304,1879.5,303.8z"/>
	<path class="st1" d="M1916.2,296.8c1.7,1.4,2.9,3.5,5.1,4.3c3.1,1.2,7.2-3.1,8.4-4.6c1.9-2.1,3.7-4.4,5.2-6.9
		c2.1-3.6,1.5-8.8-1.5-12.3c-3.5-4.1-7-3.4-10.5-0.5c-3.1,2.7-7.2,4.7-9.7,8c-1.8,2.4-1.9,3.8-1.4,6
		C1912.1,292.3,1914.9,295.7,1916.2,296.8z"/>
	<path class="st1" d="M1955,305.1c-1.6-0.5-3.1-1.5-4.8-1.5c-2.4,0.1-3.5,4.3-3.8,5.6c-0.5,2-0.9,4.1-0.9,6.3
		c-0.1,3.1,2.1,6.6,5.2,8.1c3.7,1.8,5.7,0.3,6.9-2.7c1.1-2.8,3-5.4,3.4-8.4c0.3-2.2-0.1-3.1-1.1-4.6
		C1959.2,307,1956.2,305.4,1955,305.1z"/>
	<path class="st1" d="M1978.8,334.8c-1.6-0.5-3.1-1.5-4.8-1.5c-2.4,0.1-3.5,4.3-3.8,5.6c-0.5,2-0.9,4.1-0.9,6.3
		c-0.1,3.1,2.1,6.6,5.2,8.1c3.7,1.8,5.7,0.3,6.9-2.7c1.1-2.8,3-5.4,3.4-8.4c0.3-2.2-0.1-3.1-1.1-4.6
		C1983,336.7,1980,335.1,1978.8,334.8z"/>
	<path class="st1" d="M1904.2,317.1c0.2-0.1,0.3-0.2,0.5-0.4c1.3-1.2,2.7-2.5,3.6-4c1.1-1.8,0.9-3.7,0.2-5.7
		c-0.4-1.5-1.4-3.1-3.2-3.3c-2.1-0.2-4.6-2.2-6.2-0.3c-0.8,0.9-1.2,2.4-1.6,3.5c-0.5,1.4-0.9,2.8-0.8,4.3c0.2,1.9,1.2,4.4,3.1,5.4
		C1901,317.3,1903.1,317.8,1904.2,317.1z"/>
	<path class="st1" d="M1927.9,347.2c0.3,0.1,0.6,0.1,0.9,0.1c2.7,0.1,5.4,0.3,7.9-0.2c2.9-0.6,4.8-2.4,6.3-4.7
		c1.1-1.7,1.8-3.9,0.2-5.7c-1.9-2.1-2.3-6-6-5.8c-1.8,0.1-3.7,1-5.4,1.6c-2,0.7-3.9,1.6-5.4,3c-1.8,1.8-3.4,4.8-2.6,7.4
		C1924.5,344.6,1926,346.8,1927.9,347.2z"/>
	<path class="st1" d="M1956.7,378.6c0.2,0,0.4,0.1,0.6,0.1c1.7,0.1,3.4,0.2,5.1-0.1c1.9-0.4,3.1-1.5,4-3c0.7-1,1.2-2.5,0.2-3.6
		c-1.2-1.3-1.5-3.8-3.8-3.7c-1.2,0-2.4,0.6-3.4,1c-1.3,0.5-2.5,1-3.4,1.9c-1.1,1.1-2.2,3.1-1.7,4.7
		C1954.5,376.9,1955.5,378.3,1956.7,378.6z"/>
	<path class="st1" d="M1997.4,380.6c1.9,1,3.6,2.8,5.9,3.1c3.2,0.5,6.3-4.6,7.3-6.2c1.4-2.5,2.7-5,3.6-7.8c1.2-4-0.4-9-4.1-11.8
		c-4.3-3.3-7.6-1.9-10.4,1.8c-2.5,3.3-6,6.1-7.7,9.9c-1.2,2.8-1.1,4.1-0.2,6.1C1992.4,377.1,1995.9,379.9,1997.4,380.6z"/>
	<path class="st1" d="M2034,380.4c-1.6,0.2-3.4-0.2-5,0.5c-2.1,1-1.6,5.3-1.3,6.7c0.4,2.1,0.8,4.1,1.6,6.1c1.2,2.9,4.5,5.2,8,5.4
		c4.1,0.2,5.4-1.9,5.3-5.2c-0.1-3,0.6-6.1-0.1-9c-0.6-2.2-1.3-2.9-2.8-3.8C2038.6,380.5,2035.2,380.2,2034,380.4z"/>
	<path class="st1" d="M2065.2,399.3c-1.6,0.2-3.4-0.2-5,0.5c-2.1,1-1.6,5.3-1.3,6.7c0.4,2.1,0.8,4.1,1.6,6.1c1.2,2.9,4.5,5.2,8,5.4
		c4.1,0.2,5.4-1.9,5.3-5.2c-0.1-3,0.6-6.1-0.1-9c-0.6-2.2-1.3-2.9-2.8-3.8C2069.8,399.4,2066.4,399.2,2065.2,399.3z"/>
	<path class="st1" d="M1985.6,406.3c0.2-0.1,0.3-0.2,0.5-0.3c1.4-1.1,2.9-2.2,4-3.6c1.2-1.6,1.2-3.6,0.8-5.7
		c-0.3-1.5-1.1-3.2-2.9-3.6c-2.1-0.5-4.3-2.6-6.2-0.9c-0.9,0.9-1.4,2.2-1.9,3.4c-0.6,1.3-1.2,2.7-1.2,4.2c0,1.9,0.8,4.5,2.5,5.7
		C1982.4,406.1,1984.4,406.8,1985.6,406.3z"/>
	<path class="st1" d="M2019.4,426.9c0.3,0,0.6-0.1,0.9-0.2c2.5-0.9,5.1-1.8,7.2-3.3c2.5-1.7,3.5-4.1,3.9-6.8c0.3-2,0.1-4.3-2-5.3
		c-2.6-1.2-4.5-4.6-7.8-3c-1.6,0.8-3,2.4-4.3,3.6c-1.5,1.5-3,3-3.8,4.9c-0.9,2.3-1.2,5.8,0.5,7.8
		C2015.2,425.8,2017.5,427.3,2019.4,426.9z"/>
	<path class="st1" d="M2051.4,446c0.2,0,0.4-0.1,0.6-0.2c1.6-0.6,3.2-1.2,4.6-2.1c1.6-1.1,2.2-2.6,2.5-4.3c0.2-1.2,0.1-2.7-1.3-3.4
		c-1.6-0.8-2.9-2.9-4.9-1.9c-1.1,0.5-1.9,1.5-2.7,2.3c-1,0.9-1.9,1.9-2.4,3.1c-0.6,1.5-0.8,3.7,0.3,5
		C2048.7,445.3,2050.1,446.2,2051.4,446z"/>
	<path class="st1" d="M2085.8,450.5c1.6-0.3,3.4,0,4.9-0.7c2.1-1.1,1.3-5.4,1-6.7c-0.5-2-1-4.1-1.9-6.1c-1.3-2.9-4.7-5-8.2-5.1
		c-4.1,0-5.3,2.2-5,5.5c0.2,3-0.4,6.1,0.5,9c0.7,2.1,1.4,2.8,3,3.6C2081.2,450.6,2084.6,450.7,2085.8,450.5z"/>
	<path class="st1" d="M2115.3,450.5c1.6-0.3,3.4,0,4.9-0.7c2.1-1.1,1.3-5.4,1-6.7c-0.5-2-1-4.1-1.9-6.1c-1.3-2.9-4.7-5-8.2-5.1
		c-4.1,0-5.3,2.2-5,5.5c0.2,3-0.4,6.1,0.5,9c0.7,2.1,1.4,2.8,3,3.6C2110.7,450.6,2114.1,450.7,2115.3,450.5z"/>
	<path class="st1" d="M2144.2,445.5c1.6-0.3,3.4,0,4.9-0.7c2.1-1.1,1.3-5.4,1-6.7c-0.5-2-1-4.1-1.9-6.1c-1.3-2.9-4.7-5-8.2-5.1
		c-4.1,0-5.3,2.2-5,5.5c0.2,3-0.4,6.1,0.5,9c0.7,2.1,1.4,2.8,3,3.6C2139.6,445.6,2143,445.7,2144.2,445.5z"/>
	<path class="st1" d="M2178.9,414.2c-0.3-1.6,0.1-3.4-0.7-4.9c-1.1-2.1-5.4-1.3-6.7-1c-2,0.5-4.1,1-6.1,1.9c-2.9,1.3-5,4.7-5.1,8.2
		c-0.1,4.1,2.2,5.3,5.4,5.1c3-0.2,6.1,0.4,9-0.5c2.1-0.7,2.8-1.4,3.6-3C2179,418.8,2179.1,415.4,2178.9,414.2z"/>
	<path class="st1" d="M2097.6,403.3c-0.2,0-0.4,0.1-0.6,0.2c-1.6,0.7-3.2,1.3-4.5,2.3c-1.5,1.1-2.1,2.7-2.3,4.4
		c-0.2,1.2,0,2.7,1.4,3.3c1.7,0.7,3,2.8,5,1.7c1-0.5,1.9-1.6,2.6-2.4c0.9-1,1.8-2,2.2-3.2c0.5-1.5,0.6-3.7-0.5-5
		C2100.3,403.9,2098.8,403.1,2097.6,403.3z"/>
	<path class="st1" d="M2121.2,402.6c-0.2,0-0.4,0.1-0.6,0.2c-1.6,0.7-3.2,1.3-4.5,2.3c-1.5,1.1-2.1,2.7-2.3,4.4
		c-0.2,1.2,0,2.7,1.4,3.3c1.7,0.7,3,2.8,5,1.7c1-0.5,1.9-1.6,2.6-2.4c0.9-1,1.8-2,2.2-3.2c0.5-1.5,0.6-3.7-0.5-5
		C2123.9,403.2,2122.4,402.3,2121.2,402.6z"/>
	<path class="st1" d="M2146.2,392.9c-0.2,0-0.4,0.1-0.6,0.2c-1.6,0.7-3.2,1.3-4.5,2.3c-1.5,1.1-2.1,2.7-2.3,4.4
		c-0.2,1.2,0,2.7,1.4,3.3c1.7,0.7,3,2.8,5,1.7c1-0.5,1.9-1.6,2.6-2.4c0.9-1,1.8-2,2.2-3.2c0.5-1.5,0.6-3.7-0.5-5
		C2148.9,393.5,2147.4,392.6,2146.2,392.9z"/>
	<path class="st1" d="M1117.3,385.2c0.2-0.2,0.4-0.5,0.6-0.8c1.5-2.4,3.1-4.9,3.9-7.6c0.9-3.1-0.2-6-1.9-8.7c-1.3-2-3.4-4-6.2-3.5
		c-3.3,0.6-7.9-1.3-9.6,2.2c-0.9,1.8-0.8,4.1-1,6c-0.2,2.3-0.3,4.7,0.6,6.9c1,2.7,3.6,6.1,6.9,6.8
		C1112.5,386.9,1115.8,386.7,1117.3,385.2z"/>
	<path class="st0" d="M487.8,324.3c0.2-0.3,0.3-0.6,0.4-1c0.9-2.9,1.9-5.9,2-9c0.1-3.5-1.6-6.4-4-8.9c-1.7-1.9-4.3-3.6-6.9-2.5
		c-3.1,1.3-8,0.2-8.9,4.4c-0.4,2.1,0.2,4.6,0.5,6.6c0.3,2.5,0.9,5,2.2,7.2c1.7,2.7,5,5.7,8.3,5.9
		C483.6,327.1,486.8,326.3,487.8,324.3z"/>
	<path class="st0" d="M508.5,293c0.1-0.2,0.2-0.4,0.3-0.7c0.6-2.1,1.3-4.2,1.4-6.4c0.1-2.5-1.2-4.5-2.8-6.4c-1.2-1.3-3-2.6-4.9-1.8
		c-2.2,0.9-5.7,0.1-6.3,3.1c-0.3,1.5,0.1,3.2,0.3,4.7c0.2,1.8,0.6,3.6,1.6,5.1c1.2,1.9,3.5,4.1,5.9,4.2
		C505.5,295,507.8,294.4,508.5,293z"/>
	<path class="st0" d="M484.8,270.5c0.3,0,0.7-0.1,1-0.3c3-1,6-2,8.6-3.8c3-2,4.3-5,5-8.4c0.5-2.5,0.4-5.5-2-6.9
		c-2.9-1.7-5-6.1-8.9-4.3c-2,0.9-3.7,2.9-5.2,4.3c-1.9,1.8-3.6,3.7-4.7,6c-1.2,2.9-1.8,7.3,0.1,10
		C480,268.9,482.6,270.9,484.8,270.5z"/>
	<path class="st1" d="M571.7,204.6c-2,0-4.2-0.6-6.1,0.1c-2.8,1-2.6,6.3-2.5,8c0.2,2.6,0.4,5.1,1.1,7.7c1,3.7,4.8,6.9,9,7.6
		c5,0.8,6.8-1.7,7.2-5.8c0.3-3.6,1.6-7.4,1.1-11.1c-0.4-2.7-1.2-3.6-2.9-4.9C577.2,205.2,573.2,204.5,571.7,204.6z"/>
	<path class="st1" d="M620.4,188.4c-1.4,0.8-3.2,1.2-4.2,2.4c-1.4,1.8,1.3,5.3,2.3,6.5c1.4,1.7,2.8,3.4,4.6,4.8
		c2.5,2.1,6.7,2.9,9.9,1.6c3.8-1.4,3.8-3.9,2-6.8c-1.6-2.6-2.6-5.7-4.8-8c-1.6-1.7-2.7-2-4.5-2.2
		C624.5,186.6,621.4,187.7,620.4,188.4z"/>
	<path class="st1" d="M850.8,286.8c1.5,0.5,2.9,1.6,4.6,1.7c2.4,0,4.2-4,4.7-5.3c0.8-2,1.5-4,1.8-6.1c0.5-3.1-1.2-6.5-4.1-8.2
		c-3.5-2-5.8-0.6-7.4,2.4c-1.5,2.7-3.8,5.1-4.7,8c-0.7,2.1-0.4,3.1,0.5,4.5C846.8,284.8,849.7,286.4,850.8,286.8z"/>
	<path class="st1" d="M690.9,185.8c-2-0.1-4.2-0.9-6.2-0.4c-2.9,0.8-3.2,6.2-3.3,7.9c-0.1,2.6,0,5.2,0.5,7.8
		c0.7,3.8,4.2,7.3,8.5,8.3c5,1.1,7.1-1.3,7.7-5.4c0.6-3.7,2.3-7.4,2.1-11.1c-0.2-2.8-0.9-3.8-2.6-5.2
		C696.5,186.8,692.5,185.9,690.9,185.8z"/>
	<path class="st1" d="M752.4,193.8c-1.9-0.7-3.5-2-5.6-2.1c-3,0-5.2,4.8-5.8,6.5c-1,2.4-1.9,4.8-2.3,7.4c-0.7,3.7,1.4,8,5,10
		c4.3,2.4,7,0.8,9.1-2.8c1.8-3.2,4.7-6.2,5.8-9.8c0.8-2.6,0.5-3.8-0.6-5.5C757.2,196.4,753.8,194.3,752.4,193.8z"/>
	<path class="st1" d="M799.7,208.3c-1.6,0.3-3.4,0-4.9,0.7c-2.1,1.1-1.2,5.4-0.9,6.7c0.5,2,1.1,4.1,2,6.1c1.4,2.9,4.8,5,8.3,5.1
		c4.1,0,5.2-2.2,4.9-5.5c-0.3-3,0.2-6.1-0.7-9c-0.7-2.1-1.5-2.8-3.1-3.6C804.3,208.2,800.9,208.1,799.7,208.3z"/>
	<path class="st1" d="M742.2,238.7c-1.6,0.3-3.4,0-4.9,0.7c-2.1,1.1-1.2,5.4-0.9,6.7c0.5,2,1.1,4.1,2,6.1c1.4,2.9,4.8,5,8.3,5.1
		c4.1,0,5.2-2.2,4.9-5.5c-0.3-3,0.2-6.1-0.7-9c-0.7-2.1-1.5-2.8-3.1-3.6C746.8,238.6,743.4,238.5,742.2,238.7z"/>
	<path class="st1" d="M856.8,230.9c-1.8-0.5-3.5-1.7-5.5-1.5c-2.8,0.2-4.4,5-4.9,6.5c-0.7,2.3-1.3,4.7-1.5,7.2
		c-0.3,3.6,2,7.4,5.6,9.1c4.3,2,6.7,0.2,8.3-3.3c1.5-3.2,3.9-6.2,4.6-9.7c0.5-2.5,0.1-3.6-1-5.2
		C861.6,232.9,858.1,231.2,856.8,230.9z"/>
	<path class="st1" d="M687.9,234.6c-1.3-0.5-2.4-1.4-3.9-1.5c-2-0.1-3.6,3.3-4.1,4.4c-0.7,1.6-1.3,3.3-1.7,5.1
		c-0.5,2.6,0.9,5.5,3.3,7c2.9,1.7,4.8,0.6,6.3-1.9c1.3-2.2,3.3-4.3,4.1-6.7c0.6-1.8,0.4-2.6-0.3-3.8
		C691.2,236.4,688.8,235,687.9,234.6z"/>
	<path class="st1" d="M573.4,247.6c-0.1,0.3-0.2,0.6-0.2,0.9c-0.3,2.8-0.7,5.6-0.2,8.4c0.6,3.2,2.8,5.5,5.6,7.4
		c2.1,1.4,4.9,2.5,7.3,1.1c2.8-1.7,7.8-1.5,7.9-5.4c0-1.9-1-4.1-1.7-5.9c-0.8-2.2-1.8-4.4-3.6-6.1c-2.1-2.1-6-4.3-9.3-3.9
		C577,244.4,574,245.7,573.4,247.6z"/>
	<path class="st1" d="M634.9,231.2c-0.2,0.2-0.5,0.5-0.7,0.8c-1.8,2.6-3.6,5.2-4.6,8.1c-1.1,3.3-0.1,6.5,1.7,9.5
		c1.3,2.2,3.5,4.5,6.5,4.1c3.6-0.5,8.4,1.7,10.5-2c1-1.9,1.1-4.4,1.4-6.5c0.3-2.5,0.5-5-0.3-7.5c-1-3-3.6-6.7-7.1-7.6
		C640.1,229.5,636.5,229.6,634.9,231.2z"/>
	<path class="st1" d="M795.4,253.7c-0.1,0.3-0.3,0.6-0.4,0.9c-0.9,2.7-1.8,5.5-1.8,8.4c0,3.3,1.8,5.9,4.3,8.2
		c1.8,1.7,4.4,3.3,7.1,2.2c3.1-1.3,8.1-0.3,8.9-4.2c0.4-1.9-0.3-4.2-0.6-6.2c-0.4-2.3-1-4.7-2.4-6.7c-1.7-2.5-5.2-5.2-8.6-5.3
		C799.7,251,796.4,251.9,795.4,253.7z"/>
	<path class="st1" d="M905,252c-0.3,0.1-0.6,0.3-0.9,0.5c-2.6,1.6-5.3,3.2-7.3,5.3c-2.4,2.4-2.8,5.4-2.7,8.6c0.2,2.3,1,5,3.8,5.6
		c3.3,0.8,6.4,4.3,9.7,1.8c1.7-1.2,2.8-3.4,3.9-5c1.3-2,2.6-4.1,2.9-6.4c0.5-2.8-0.2-6.9-2.7-8.8C910.1,252.4,907,251.2,905,252z"/>
	<path class="st1" d="M890.3,289.8c-0.2,0.2-0.5,0.5-0.8,0.8c-2,2.4-4.1,4.8-5.3,7.6c-1.4,3.2-0.7,6.3,0.7,9.4c1.1,2.2,3,4.6,6,4.5
		c3.6-0.2,8.2,2.3,10.6-1.2c1.2-1.8,1.5-4.2,2-6.2c0.6-2.4,1-4.9,0.4-7.3c-0.7-3-2.9-6.8-6.3-8C895.7,288.5,892.1,288.3,890.3,289.8
		z"/>
	<path class="st1" d="M974.9,318.4c0.2-0.2,0.5-0.5,0.7-0.8c1.9-2.4,3.9-4.9,5.1-7.7c1.3-3.2,0.5-6.3-1-9.4
		c-1.1-2.2-3.2-4.5-6.2-4.3c-3.6,0.3-8.2-2.1-10.5,1.5c-1.1,1.8-1.4,4.3-1.8,6.3c-0.5,2.4-0.8,4.9-0.2,7.3c0.8,3,3.1,6.7,6.5,7.8
		C969.7,319.7,973.2,319.9,974.9,318.4z"/>
	<path class="st0" d="M188.5,417.3c-0.2,0.2-0.4,0.4-0.6,0.7c-1.7,2.2-3.5,4.4-4.5,7c-1.2,2.9-0.6,5.8,0.6,8.7
		c0.9,2.1,2.5,4.3,5.1,4.1c3.1-0.2,6.9,2.1,8.9-1.1c1-1.6,1.3-3.9,1.7-5.7c0.5-2.2,0.8-4.5,0.4-6.7c-0.6-2.8-2.5-6.3-5.3-7.4
		C193.1,416.2,190,416,188.5,417.3z"/>
	<path class="st1" d="M936.5,324.1c-0.3,0.1-0.7,0.2-1.1,0.4c-3.2,1.4-6.4,2.9-9.1,5c-3,2.4-4,5.7-4.3,9.3c-0.2,2.6,0.4,5.7,3.4,6.8
		c3.5,1.3,6.5,5.6,10.7,3.3c2.1-1.2,3.7-3.4,5.2-5.1c1.8-2,3.5-4.2,4.3-6.8c0.9-3.1,0.8-7.7-1.8-10.2
		C942.2,325.1,938.9,323.4,936.5,324.1z"/>
	<path class="st1" d="M990.2,390.1c0.4-0.3,0.8-0.6,1.3-1c3.4-3.3,7.1-6.6,9.5-10.6c2.7-4.5,2.3-9.4,0.7-14.3
		c-1.2-3.5-3.6-7.4-8.2-7.6c-5.5-0.3-11.8-4.8-16.1,0.2c-2.1,2.5-3.1,6.1-4.2,9c-1.3,3.5-2.4,7.2-2.1,10.9c0.4,4.6,3,10.7,7.9,12.9
		C982,391.1,987.3,392,990.2,390.1z"/>
	<path class="st1" d="M1269.5,424.4c-1.3,0.1-2.7-0.2-3.9,0.3c-1.7,0.8-1.3,4.2-1.1,5.3c0.3,1.6,0.6,3.3,1.2,4.9
		c0.9,2.3,3.5,4.2,6.3,4.4c3.3,0.2,4.3-1.5,4.3-4.1c0-2.4,0.6-4.9,0-7.2c-0.4-1.7-1-2.3-2.2-3
		C1273.1,424.6,1270.5,424.3,1269.5,424.4z"/>
	<path class="st1" d="M1337.7,380.2c-1.7,1.2-4,1.9-5.2,3.7c-1.6,2.5,2.5,6.9,3.9,8.3c2.1,2.1,4.2,4.1,6.8,5.9c3.7,2.5,9.3,3,13.4,1
		c4.8-2.3,4.5-5.6,1.7-9.2c-2.5-3.3-4.2-7.3-7.4-10.1c-2.4-2.1-3.8-2.4-6.2-2.4C1343,377.5,1339,379.3,1337.7,380.2z"/>
	<path class="st1" d="M1649.9,256.2c1.2-1.6,3.1-3,3.6-5c0.6-2.8-4.8-5.9-6.7-6.8c-2.7-1.4-5.5-2.7-8.5-3.7
		c-4.4-1.4-9.9-0.3-13.1,2.8c-3.8,3.6-2.3,6.5,1.6,9.2c3.5,2.4,6.6,5.7,10.6,7.4c3,1.3,4.4,1.2,6.8,0.5
		C1645.9,260.3,1649.1,257.5,1649.9,256.2z"/>
	<path class="st1" d="M1034.4,389.6c-0.2,0.2-0.5,0.4-0.7,0.7c-1.8,2.2-3.8,4.4-4.9,7c-1.3,2.9-0.7,5.8,0.7,8.7
		c1,2.1,2.8,4.3,5.6,4.1c3.3-0.2,7.6,2.1,9.8-1.1c1.1-1.6,1.4-3.9,1.8-5.7c0.5-2.2,0.9-4.5,0.4-6.7c-0.6-2.8-2.7-6.3-5.8-7.4
		C1039.3,388.5,1036.1,388.3,1034.4,389.6z"/>
</g>
</svg>
